<svg xmlns="http://www.w3.org/2000/svg" version="1.1" xmlns:xlink="http://www.w3.org/1999/xlink" width="1000" height="1000"><style>
    #light-icon {
      display: inline;
    }
    #dark-icon {
      display: none;
    }

    @media (prefers-color-scheme: dark) {
      #light-icon {
        display: none;
      }
      #dark-icon {
        display: inline;
      }
    }
  </style><g id="light-icon"><svg xmlns="http://www.w3.org/2000/svg" version="1.1" xmlns:xlink="http://www.w3.org/1999/xlink" width="1000" height="1000"><g><g transform="matrix(3.90625,0,0,3.90625,0,0)"><svg xmlns="http://www.w3.org/2000/svg" version="1.1" xmlns:xlink="http://www.w3.org/1999/xlink" width="256" height="256"><svg width="256" height="256" viewBox="0 0 256 256" version="1.1" id="svg5" inkscape:version="1.1.1 (c3084ef, 2021-09-22)" sodipodi:docname="MechanistFavicon.svg" xmlns:inkscape="http://www.inkscape.org/namespaces/inkscape" xmlns:sodipodi="http://sodipodi.sourceforge.net/DTD/sodipodi-0.dtd" xmlns="http://www.w3.org/2000/svg" xmlns:svg="http://www.w3.org/2000/svg">
  <sodipodi:namedview id="namedview7" pagecolor="#ffffff" bordercolor="#666666" borderopacity="1.0" inkscape:pageshadow="2" inkscape:pageopacity="0.0" inkscape:pagecheckerboard="0" inkscape:document-units="px" showgrid="false" inkscape:zoom="1.8742706" inkscape:cx="79.230824" inkscape:cy="112.8439" inkscape:window-width="1920" inkscape:window-height="941" inkscape:window-x="0" inkscape:window-y="25" inkscape:window-maximized="0" inkscape:current-layer="layer1" units="px" width="256px"></sodipodi:namedview>
  <defs id="defs2"></defs>
  <g inkscape:label="Layer 1" inkscape:groupmode="layer" id="layer1">
    <path id="path10506-8-4-1-9-9-9" style="color:#000000;fill:#1a1a1a;stroke-width:1.22294;stroke-linecap:round;-inkscape-stroke:none" d="M 128,3.2754336 C 96.071128,3.2753977 64.14239,15.448451 39.795673,39.795192 c -48.6934446,48.693447 -48.6934446,127.715878 0,176.409288 48.693424,48.69345 127.715227,48.69345 176.408677,0 48.69342,-48.69341 48.69342,-127.715841 0,-176.409288 C 191.85761,15.448474 159.92886,3.2754336 128,3.2754336 Z m 0,4.8611156 c 30.66671,0 61.33353,11.7059998 84.74556,35.1180468 46.82406,46.82406 46.82406,122.666414 0,169.490474 -46.82407,46.82406 -122.667057,46.82406 -169.491117,0 -46.8240582,-46.82406 -46.8240582,-122.666414 0,-169.490474 C 66.666491,19.842549 97.333291,8.1365492 128,8.1365492 Z m 24.6033,16.9115558 c -4.69888,0 -8.56068,3.861814 -8.56068,8.560682 0,1.095132 0.20966,2.144696 0.5909,3.110574 L 125.5985,95.068072 C 109.10126,96.258964 95.924103,109.62285 95.028755,126.19905 l -58.372738,19.04192 c -1.008864,-0.42165 -2.112984,-0.65471 -3.26793,-0.65471 -4.69888,0 -8.560681,3.86117 -8.560681,8.56006 0,4.69891 3.861801,8.56071 8.560681,8.56071 0.06776,0 0.134903,-9.3e-4 0.202239,-0.002 15.189582,42.61711 57.408964,70.19773 103.149834,66.1959 21.10976,-1.84684 40.29563,-10.21349 55.60597,-23.04422 1.30912,0.81519 2.84942,1.28797 4.49271,1.28797 4.69888,0 8.56068,-3.86181 8.56068,-8.56073 0,-1.608 -0.45222,-3.11791 -1.23551,-4.40862 13.22551,-15.44298 21.8561,-34.94437 23.73625,-56.43448 4.01893,-45.937224 -23.8101,-88.331999 -66.73941,-103.353342 -0.11936,-4.597852 -3.93288,-8.338877 -8.55755,-8.338877 z m 0,4.892117 c 2.05523,0 3.6686,1.613389 3.6686,3.668565 0,2.055225 -1.61337,3.668602 -3.6686,3.668602 -2.05518,0 -3.66921,-1.613377 -3.66921,-3.668602 0,-2.055176 1.61403,-3.668565 3.66921,-3.668565 z m 7.25947,8.182758 c 40.67654,14.389987 66.97866,54.579477 63.16308,98.1914 -1.78462,20.39816 -9.94697,38.90266 -22.46282,53.56975 -1.12826,-0.55137 -2.39263,-0.8614 -3.72419,-0.8614 -4.69891,0 -8.56008,3.86179 -8.56008,8.56069 0,1.29706 0.29416,2.52989 0.81902,3.63576 -14.54082,12.1429 -32.74679,20.05565 -52.78482,21.8087 -43.497029,3.80552 -83.58699,-22.35018 -98.07447,-62.84392 0.596026,-0.41349 1.139096,-0.90094 1.613426,-1.44785 l 60.451274,-12.77723 c 5.89389,9.05807 16.10648,15.06055 27.69555,15.06055 18.2071,0 33.01929,-14.81277 33.01929,-33.01991 0,-11.7935 -6.21615,-22.16023 -15.54274,-28.002063 l 12.65209,-59.869222 c 0.67593,-0.574501 1.26266,-1.250946 1.73539,-2.005255 z m -88.609421,0.293859 c -18.207139,0 -33.019286,14.812147 -33.019286,33.019286 0,11.816419 6.240239,22.201281 15.597066,28.036807 0.587991,-1.535588 1.212545,-3.059722 1.899094,-4.563483 C 48.768425,90.303192 43.998885,82.67726 43.243694,73.883119 h 19.811684 c 0.5238,1.727966 1.585495,3.230397 2.984809,4.314485 1.01251,-1.257782 2.067674,-2.492329 3.168101,-3.700215 -0.984945,-0.651668 -1.62354,-1.768725 -1.62354,-3.061264 0,-2.055213 1.613376,-3.668602 3.668601,-3.668602 1.288001,0 2.402309,0.6344 3.054954,1.613426 1.204352,-1.104279 2.435021,-2.164238 3.689429,-3.180698 -1.082853,-1.388367 -2.579011,-2.441197 -4.298037,-2.962047 V 43.426481 c 8.760522,0.752071 16.362114,5.487419 20.973873,12.405631 1.501733,-0.691536 3.025217,-1.31745 4.559067,-1.910453 -5.846173,-9.305478 -16.201842,-15.50482 -27.979286,-15.50482 z m 77.117001,2.620786 c 1.25113,0.719138 2.69755,1.131881 4.23295,1.131881 0.0315,0 0.0627,-9.3e-4 0.0942,-0.0013 l -11.72559,55.46946 c -3.1867,-1.366801 -6.63015,-2.245747 -10.23607,-2.543067 z m -79.562123,2.383193 v 19.816737 c -2.745808,0.82792 -4.925737,3.00819 -5.753459,5.754107 H 43.238006 C 44.404117,55.38558 55.202217,44.587186 68.808227,43.420818 Z M 128,52.192568 c -19.40974,0 -38.819631,7.397995 -53.61459,22.19296 C 57.511961,91.258979 50.276385,114.13335 52.646823,136.16587 l 4.720208,-1.5401 c -1.690495,-18.10941 3.56541,-36.742478 15.774026,-51.594236 l 22.8047,27.177986 c 0.834027,-1.49336 1.766083,-2.92486 2.793324,-4.2816 L 76.413376,79.320618 c 0.46934,-0.496783 0.944404,-0.989897 1.430791,-1.476284 0.486389,-0.486401 0.979551,-0.962113 1.476286,-1.431416 l 26.608567,22.326928 c 1.3568,-1.027067 2.78769,-1.959414 4.28099,-2.793314 L 83.032029,73.141821 C 96.076845,62.418466 112.03759,57.05372 128,57.05372 c 2.01977,0 4.03858,0.100032 6.05241,0.271726 l 1.54834,-4.746087 C 133.07377,52.326528 130.53727,52.192568 128,52.192568 Z m 30.01932,6.190794 -1.02948,4.869982 c 7.67083,3.436597 14.86391,8.289532 21.16538,14.59099 7.37663,7.376646 12.79035,15.968059 16.24102,25.127196 l -34.96383,6.16491 c 0.87915,1.45667 1.6619,2.97726 2.33512,4.55524 l 34.20867,-6.03153 c 0.39258,1.31457 0.74318,2.63842 1.05791,3.9694 l -32.63377,11.87791 c 0.18183,1.47387 0.28629,2.97083 0.28629,4.49206 0,0.20624 -0.0124,0.40946 -0.0158,0.6149 l 33.33459,-12.13261 c 3.56777,21.76652 -3.04706,44.87037 -19.85022,61.67356 -16.80349,16.80349 -39.90795,23.41781 -61.67479,19.84961 l 12.13196,-33.33275 c -0.20502,0.003 -0.40784,0.0157 -0.61365,0.0157 -1.52158,0 -3.01913,-0.10494 -4.49331,-0.28693 l -11.87729,32.63253 c -1.33081,-0.3147 -2.65502,-0.66596 -3.96942,-1.05855 l 6.03152,-34.20674 c -1.57792,-0.67324 -3.09863,-1.45537 -4.55524,-2.3345 l -6.16489,34.96131 c -9.158637,-3.45072 -17.749671,-8.86348 -25.125961,-16.23977 -6.163706,-6.1637 -10.939081,-13.18132 -14.361578,-20.66362 l -4.879424,1.03139 c 3.678949,8.37961 8.925571,16.23437 15.782244,23.091 29.589929,29.58993 77.639269,29.58993 107.229219,0 29.58992,-29.58993 29.58992,-77.63864 0,-107.228611 -6.99406,-6.994022 -15.02619,-12.314278 -23.59531,-16.002165 z m -30.02058,41.488986 c 15.56345,0 28.1272,12.563762 28.1272,28.127172 0,15.5634 -12.56375,28.1278 -28.1272,28.1278 -15.56342,0 -28.127837,-12.5644 -28.127837,-28.1278 0,-15.56341 12.564417,-28.127172 28.127837,-28.127172 z m 0,19.567142 c -4.69892,0 -8.56068,3.86115 -8.56068,8.56003 0,4.6989 3.86176,8.56071 8.56068,8.56071 4.69891,0 8.56007,-3.86181 8.56007,-8.56071 0,-4.69888 -3.86116,-8.56003 -8.56007,-8.56003 z m 0,4.89145 c 2.05521,0 3.6686,1.61339 3.6686,3.66858 0,2.05521 -1.61339,3.66924 -3.6686,3.66924 -2.0552,0 -3.66922,-1.61403 -3.66922,-3.66924 0,-2.05519 1.61402,-3.66858 3.66922,-3.66858 z m -32.854329,6.97569 c 0.358467,3.58863 1.293765,7.00963 2.711794,10.16909 L 41.946274,153.2923 c 7.84e-4,-0.0484 0.0023,-0.0972 0.0023,-0.14598 0,-1.49557 -0.391354,-2.90591 -1.076261,-4.13435 z m -61.756324,18.1711 c 2.055214,0 3.668603,1.61341 3.668603,3.66859 0,2.05521 -1.613389,3.66924 -3.668603,3.66924 -2.055188,0 -3.669212,-1.61403 -3.669212,-3.66924 0,-2.05518 1.614024,-3.66859 3.669212,-3.66859 z m 163.450753,44.43649 c 2.05517,0 3.66922,1.614 3.66922,3.6692 0,2.05523 -1.61405,3.66861 -3.66922,3.66861 -2.05521,0 -3.6686,-1.61338 -3.6686,-3.66861 0,-2.0552 1.61339,-3.6692 3.6686,-3.6692 z" inkscape:export-filename="/Users/traviszehren/Documents/MechanistLight.png" inkscape:export-xdpi="101.62185" inkscape:export-ydpi="101.62185"></path>
  </g>
</svg></svg></g></g></svg></g><g id="dark-icon"><svg xmlns="http://www.w3.org/2000/svg" version="1.1" xmlns:xlink="http://www.w3.org/1999/xlink" width="1000" height="1000"><g><g transform="matrix(3.90625,0,0,3.90625,0,0)"><svg xmlns="http://www.w3.org/2000/svg" version="1.1" xmlns:xlink="http://www.w3.org/1999/xlink" width="256" height="256"><svg width="256" height="256" viewBox="0 0 256 256" version="1.1" id="svg5" inkscape:version="1.1.1 (c3084ef, 2021-09-22)" sodipodi:docname="MechanistFaviconLight.svg" xmlns:inkscape="http://www.inkscape.org/namespaces/inkscape" xmlns:sodipodi="http://sodipodi.sourceforge.net/DTD/sodipodi-0.dtd" xmlns="http://www.w3.org/2000/svg" xmlns:svg="http://www.w3.org/2000/svg">
  <sodipodi:namedview id="namedview7" pagecolor="#ffffff" bordercolor="#666666" borderopacity="1.0" inkscape:pageshadow="2" inkscape:pageopacity="0.0" inkscape:pagecheckerboard="0" inkscape:document-units="px" showgrid="false" inkscape:zoom="1.8742706" inkscape:cx="79.230824" inkscape:cy="112.8439" inkscape:window-width="1920" inkscape:window-height="941" inkscape:window-x="0" inkscape:window-y="25" inkscape:window-maximized="0" inkscape:current-layer="layer1" units="px" width="256px"></sodipodi:namedview>
  <defs id="defs2"></defs>
  <g inkscape:label="Layer 1" inkscape:groupmode="layer" id="layer1">
    <path id="path10506-8-4-1-9-9-9" style="color:#000000;fill:#ffffff;stroke-width:1.22294;stroke-linecap:round;-inkscape-stroke:none" d="M 128,3.2754336 C 96.071128,3.2753977 64.14239,15.448451 39.795673,39.795192 c -48.6934446,48.693447 -48.6934446,127.715878 0,176.409288 48.693424,48.69345 127.715227,48.69345 176.408677,0 48.69342,-48.69341 48.69342,-127.715841 0,-176.409288 C 191.85761,15.448474 159.92886,3.2754336 128,3.2754336 Z m 0,4.8611156 c 30.66671,0 61.33353,11.7059998 84.74556,35.1180468 46.82406,46.82406 46.82406,122.666414 0,169.490474 -46.82407,46.82406 -122.667057,46.82406 -169.491117,0 -46.8240582,-46.82406 -46.8240582,-122.666414 0,-169.490474 C 66.666491,19.842549 97.333291,8.1365492 128,8.1365492 Z m 24.6033,16.9115558 c -4.69888,0 -8.56068,3.861814 -8.56068,8.560682 0,1.095132 0.20966,2.144696 0.5909,3.110574 L 125.5985,95.068072 C 109.10126,96.258964 95.924103,109.62285 95.028755,126.19905 l -58.372738,19.04192 c -1.008864,-0.42165 -2.112984,-0.65471 -3.26793,-0.65471 -4.69888,0 -8.560681,3.86117 -8.560681,8.56006 0,4.69891 3.861801,8.56071 8.560681,8.56071 0.06776,0 0.134903,-9.3e-4 0.202239,-0.002 15.189582,42.61711 57.408964,70.19773 103.149834,66.1959 21.10976,-1.84684 40.29563,-10.21349 55.60597,-23.04422 1.30912,0.81519 2.84942,1.28797 4.49271,1.28797 4.69888,0 8.56068,-3.86181 8.56068,-8.56073 0,-1.608 -0.45222,-3.11791 -1.23551,-4.40862 13.22551,-15.44298 21.8561,-34.94437 23.73625,-56.43448 4.01893,-45.937224 -23.8101,-88.331999 -66.73941,-103.353342 -0.11936,-4.597852 -3.93288,-8.338877 -8.55755,-8.338877 z m 0,4.892117 c 2.05523,0 3.6686,1.613389 3.6686,3.668565 0,2.055225 -1.61337,3.668602 -3.6686,3.668602 -2.05518,0 -3.66921,-1.613377 -3.66921,-3.668602 0,-2.055176 1.61403,-3.668565 3.66921,-3.668565 z m 7.25947,8.182758 c 40.67654,14.389987 66.97866,54.579477 63.16308,98.1914 -1.78462,20.39816 -9.94697,38.90266 -22.46282,53.56975 -1.12826,-0.55137 -2.39263,-0.8614 -3.72419,-0.8614 -4.69891,0 -8.56008,3.86179 -8.56008,8.56069 0,1.29706 0.29416,2.52989 0.81902,3.63576 -14.54082,12.1429 -32.74679,20.05565 -52.78482,21.8087 -43.497029,3.80552 -83.58699,-22.35018 -98.07447,-62.84392 0.596026,-0.41349 1.139096,-0.90094 1.613426,-1.44785 l 60.451274,-12.77723 c 5.89389,9.05807 16.10648,15.06055 27.69555,15.06055 18.2071,0 33.01929,-14.81277 33.01929,-33.01991 0,-11.7935 -6.21615,-22.16023 -15.54274,-28.002063 l 12.65209,-59.869222 c 0.67593,-0.574501 1.26266,-1.250946 1.73539,-2.005255 z m -88.609421,0.293859 c -18.207139,0 -33.019286,14.812147 -33.019286,33.019286 0,11.816419 6.240239,22.201281 15.597066,28.036807 0.587991,-1.535588 1.212545,-3.059722 1.899094,-4.563483 C 48.768425,90.303192 43.998885,82.67726 43.243694,73.883119 h 19.811684 c 0.5238,1.727966 1.585495,3.230397 2.984809,4.314485 1.01251,-1.257782 2.067674,-2.492329 3.168101,-3.700215 -0.984945,-0.651668 -1.62354,-1.768725 -1.62354,-3.061264 0,-2.055213 1.613376,-3.668602 3.668601,-3.668602 1.288001,0 2.402309,0.6344 3.054954,1.613426 1.204352,-1.104279 2.435021,-2.164238 3.689429,-3.180698 -1.082853,-1.388367 -2.579011,-2.441197 -4.298037,-2.962047 V 43.426481 c 8.760522,0.752071 16.362114,5.487419 20.973873,12.405631 1.501733,-0.691536 3.025217,-1.31745 4.559067,-1.910453 -5.846173,-9.305478 -16.201842,-15.50482 -27.979286,-15.50482 z m 77.117001,2.620786 c 1.25113,0.719138 2.69755,1.131881 4.23295,1.131881 0.0315,0 0.0627,-9.3e-4 0.0942,-0.0013 l -11.72559,55.46946 c -3.1867,-1.366801 -6.63015,-2.245747 -10.23607,-2.543067 z m -79.562123,2.383193 v 19.816737 c -2.745808,0.82792 -4.925737,3.00819 -5.753459,5.754107 H 43.238006 C 44.404117,55.38558 55.202217,44.587186 68.808227,43.420818 Z M 128,52.192568 c -19.40974,0 -38.819631,7.397995 -53.61459,22.19296 C 57.511961,91.258979 50.276385,114.13335 52.646823,136.16587 l 4.720208,-1.5401 c -1.690495,-18.10941 3.56541,-36.742478 15.774026,-51.594236 l 22.8047,27.177986 c 0.834027,-1.49336 1.766083,-2.92486 2.793324,-4.2816 L 76.413376,79.320618 c 0.46934,-0.496783 0.944404,-0.989897 1.430791,-1.476284 0.486389,-0.486401 0.979551,-0.962113 1.476286,-1.431416 l 26.608567,22.326928 c 1.3568,-1.027067 2.78769,-1.959414 4.28099,-2.793314 L 83.032029,73.141821 C 96.076845,62.418466 112.03759,57.05372 128,57.05372 c 2.01977,0 4.03858,0.100032 6.05241,0.271726 l 1.54834,-4.746087 C 133.07377,52.326528 130.53727,52.192568 128,52.192568 Z m 30.01932,6.190794 -1.02948,4.869982 c 7.67083,3.436597 14.86391,8.289532 21.16538,14.59099 7.37663,7.376646 12.79035,15.968059 16.24102,25.127196 l -34.96383,6.16491 c 0.87915,1.45667 1.6619,2.97726 2.33512,4.55524 l 34.20867,-6.03153 c 0.39258,1.31457 0.74318,2.63842 1.05791,3.9694 l -32.63377,11.87791 c 0.18183,1.47387 0.28629,2.97083 0.28629,4.49206 0,0.20624 -0.0124,0.40946 -0.0158,0.6149 l 33.33459,-12.13261 c 3.56777,21.76652 -3.04706,44.87037 -19.85022,61.67356 -16.80349,16.80349 -39.90795,23.41781 -61.67479,19.84961 l 12.13196,-33.33275 c -0.20502,0.003 -0.40784,0.0157 -0.61365,0.0157 -1.52158,0 -3.01913,-0.10494 -4.49331,-0.28693 l -11.87729,32.63253 c -1.33081,-0.3147 -2.65502,-0.66596 -3.96942,-1.05855 l 6.03152,-34.20674 c -1.57792,-0.67324 -3.09863,-1.45537 -4.55524,-2.3345 l -6.16489,34.96131 c -9.158637,-3.45072 -17.749671,-8.86348 -25.125961,-16.23977 -6.163706,-6.1637 -10.939081,-13.18132 -14.361578,-20.66362 l -4.879424,1.03139 c 3.678949,8.37961 8.925571,16.23437 15.782244,23.091 29.589929,29.58993 77.639269,29.58993 107.229219,0 29.58992,-29.58993 29.58992,-77.63864 0,-107.228611 -6.99406,-6.994022 -15.02619,-12.314278 -23.59531,-16.002165 z m -30.02058,41.488986 c 15.56345,0 28.1272,12.563762 28.1272,28.127172 0,15.5634 -12.56375,28.1278 -28.1272,28.1278 -15.56342,0 -28.127837,-12.5644 -28.127837,-28.1278 0,-15.56341 12.564417,-28.127172 28.127837,-28.127172 z m 0,19.567142 c -4.69892,0 -8.56068,3.86115 -8.56068,8.56003 0,4.6989 3.86176,8.56071 8.56068,8.56071 4.69891,0 8.56007,-3.86181 8.56007,-8.56071 0,-4.69888 -3.86116,-8.56003 -8.56007,-8.56003 z m 0,4.89145 c 2.05521,0 3.6686,1.61339 3.6686,3.66858 0,2.05521 -1.61339,3.66924 -3.6686,3.66924 -2.0552,0 -3.66922,-1.61403 -3.66922,-3.66924 0,-2.05519 1.61402,-3.66858 3.66922,-3.66858 z m -32.854329,6.97569 c 0.358467,3.58863 1.293765,7.00963 2.711794,10.16909 L 41.946274,153.2923 c 7.84e-4,-0.0484 0.0023,-0.0972 0.0023,-0.14598 0,-1.49557 -0.391354,-2.90591 -1.076261,-4.13435 z m -61.756324,18.1711 c 2.055214,0 3.668603,1.61341 3.668603,3.66859 0,2.05521 -1.613389,3.66924 -3.668603,3.66924 -2.055188,0 -3.669212,-1.61403 -3.669212,-3.66924 0,-2.05518 1.614024,-3.66859 3.669212,-3.66859 z m 163.450753,44.43649 c 2.05517,0 3.66922,1.614 3.66922,3.6692 0,2.05523 -1.61405,3.66861 -3.66922,3.66861 -2.05521,0 -3.6686,-1.61338 -3.6686,-3.66861 0,-2.0552 1.61339,-3.6692 3.6686,-3.6692 z" inkscape:export-filename="/Users/traviszehren/Documents/MechanistLight.png" inkscape:export-xdpi="101.62185" inkscape:export-ydpi="101.62185"></path>
  </g>
</svg></svg></g></g></svg></g></svg>