<svg xmlns="http://www.w3.org/2000/svg" version="1.1" xmlns:xlink="http://www.w3.org/1999/xlink" width="256" height="256"><svg width="256" height="256" viewBox="0 0 256 256" version="1.1" id="SvgjsSvg1019" inkscape:version="1.1.1 (c3084ef, 2021-09-22)" sodipodi:docname="MechanistFavicon.svg" xmlns:inkscape="http://www.inkscape.org/namespaces/inkscape" xmlns:sodipodi="http://sodipodi.sourceforge.net/DTD/sodipodi-0.dtd" xmlns="http://www.w3.org/2000/svg" xmlns:svg="http://www.w3.org/2000/svg">
  <sodipodi:namedview id="SvgjsSodipodi:namedview1018" pagecolor="#ffffff" bordercolor="#666666" borderopacity="1.0" inkscape:pageshadow="2" inkscape:pageopacity="0.0" inkscape:pagecheckerboard="0" inkscape:document-units="px" showgrid="false" inkscape:zoom="0.52079433" inkscape:cx="-135.37014" inkscape:cy="199.69495" inkscape:window-width="1440" inkscape:window-height="762" inkscape:window-x="0" inkscape:window-y="25" inkscape:window-maximized="0" inkscape:current-layer="layer1" units="px" width="256px"></sodipodi:namedview>
  <defs id="SvgjsDefs1017"></defs>
  <g inkscape:label="Layer 1" inkscape:groupmode="layer" id="SvgjsG1016">
    <g id="SvgjsG1015" transform="matrix(0.35541482,0,0,0.35541482,95.952823,137.29178)">
      <path id="SvgjsPath1014" style="color:#000000;fill:#1a1a1a;stroke-width:3.77953;stroke-linecap:square;stroke-dashoffset:18.1417;-inkscape-stroke:none" d="m -52.0111,-320.0991 c -2.2997,0.024 -4.6146,0.1382 -6.9414,0.3418 -6.1164,0.5351 -12.0434,1.678 -17.7266,3.3613 l 15.5684,42.7715 c 1.9854,-0.4413 4.0202,-0.7684 6.1094,-0.9512 2.0904,-0.1829 4.1544,-0.2131 6.1874,-0.123 l 7.9043,-44.8242 c -3.6501,-0.416 -7.3546,-0.6156 -11.1015,-0.5762 z m 22.2637,2.5664 -7.8868,44.7324 c 4.0129,1.2149 7.7905,2.9718 11.25,5.1953 l 29.0957,-34.6699 c -9.614,-7.1073 -20.6273,-12.3612 -32.4589,-15.2578 z m -57.5782,5.0391 c -11.1495,4.9066 -21.0839,11.9895 -29.3183,20.6582 l 34.6718,29.0937 c 3.0216,-2.791 6.4378,-5.1769 10.1797,-7.0703 z m 98.7227,17.5078 -29.0918,34.6719 c 2.7899,3.0214 5.1738,6.4382 7.0664,10.1796 l 42.6816,-15.5351 c -4.9059,-11.1487 -11.9887,-21.0822 -20.6562,-29.3164 z m -135.3301,11.8359 c -7.1068,9.6146 -12.3561,20.629 -15.2519,32.461 l 44.7304,7.8867 c 1.2146,-4.0141 2.9716,-7.7934 5.1953,-11.2539 z m -17.2461,43.6231 c -0.6707,5.8886 -0.7675,11.9213 -0.2324,18.0371 0.5352,6.1176 1.6794,12.0462 3.3633,17.7304 l 42.7715,-15.5664 c -0.442,-1.9872 -0.7702,-4.024 -0.9532,-6.1152 -0.1827,-2.0884 -0.2108,-4.1505 -0.1211,-6.1816 z m 49.7168,30.8808 -42.6836,15.5352 c 4.9072,11.1481 11.9917,21.0812 20.6602,29.3144 l 29.0937,-34.6718 c -2.7905,-3.0207 -5.1769,-6.437 -7.0703,-10.1778 z" inkscape:export-filename="/Users/traviszehren/Google Drive/My Drive/Mechanist Studio/MechanistLight.png" inkscape:export-xdpi="109.18345" inkscape:export-ydpi="109.18345"></path>
      <path id="SvgjsPath1013" style="color:#000000;fill:#1a1a1a;stroke-width:3.77953;stroke-linecap:round;-inkscape-stroke:none" d="m 92.2819,-245.105 c -49.9952,0.4014 -100.1454,17.5039 -141.375,52.0997 -57.2683,48.0538 -84.2228,118.9143 -78.8614,188.2675 l 22.1739,-6.9414 c -1.1927,-22.9541 1.4801,-46.0039 8.0878,-68.0722 l 60.5118,22.0254 c 2.013,-7.4253 4.6161,-14.5414 7.7382,-21.3145 l -60.5293,-22.0313 c 11.9726,-27.97 30.5222,-53.6412 55.4551,-74.5625 37.1224,-31.1494 82.153,-46.5579 127.0274,-46.9316 4.0603,-0.034 8.1162,0.097 12.1679,0.3086 l 6.918,-22.0937 c -6.4246,-0.5024 -12.8652,-0.8057 -19.3144,-0.754 z m 97.8691,21.6817 -5.0762,22.6797 c 20.1483,10.2566 38.8701,24.0353 55.1289,41.3711 l -49.5,41.5351 c 5.3294,5.4047 10.1873,11.2316 14.5313,17.4102 l 49.5371,-41.5684 c 63.2582,84.5639 50.1505,204.5241 -31.7676,273.2617 -24.8742,20.872 -53.3006,34.6675 -82.8496,41.6172 l -11.209,-63.5625 c -7.2735,1.9465 -14.737,3.296 -22.3183,4.0117 l 11.1933,63.4766 C 53.0717,184.4501 -14.0979,160.3348 -59.2064,106.5767 -69.1796,94.691 -77.4442,81.9631 -84.2123,68.7212 l -22.8398,5.1113 c 7.9393,16.6399 18.0828,32.5524 30.4746,47.3204 79.0764,94.2391 219.9187,106.5607 314.1582,27.4843 94.2395,-79.076 106.5604,-219.9187 27.4844,-314.1582 -21.2141,-25.2817 -46.9019,-44.5948 -74.9141,-57.9023 z" inkscape:export-filename="/Users/traviszehren/Google Drive/My Drive/Mechanist Studio/MechanistLight.png" inkscape:export-xdpi="109.18345" inkscape:export-ydpi="109.18345"></path>
      <path id="SvgjsPath1012" style="color:#000000;fill:#1a1a1a;stroke-width:3.77953;stroke-linecap:round;-inkscape-stroke:none" d="m 176.3092,-377.8452 c -12.5982,0 -25.1957,4.7738 -34.7422,14.3203 -19.093,19.0931 -19.093,50.3936 0,69.4863 2.3143,2.3143 4.808,4.3445 7.4375,6.0977 l -47.7988,152.6602 c -52.6505,-3.2388 -102.4424,31.006 -116.5918,83.8125 -3.2605,12.1683 -4.3847,24.4279 -3.6133,36.3808 l -152.5684,47.7715 c -1.7541,-2.6316 -3.7856,-5.1294 -6.1015,-7.4453 -19.0931,-19.0934 -50.3933,-19.093 -69.4863,0 -19.0931,19.0927 -19.0931,50.3933 0,69.4863 9.635,9.6353 22.3786,14.4041 35.0937,14.3145 55.4007,137.3622 184.4269,228.5375 336.502,215.2324 68.1765,-5.9645 130.6496,-31.4787 181.8066,-70.916 17.6247,6.8315 38.4864,3.1757 52.6406,-10.9785 14.1701,-14.1701 17.8198,-35.064 10.9571,-52.7012 39.3007,-51.099 64.7291,-113.452 70.6816,-181.4902 13.3025,-152.0483 -77.838,-281.0556 -215.1602,-336.4727 0.1269,-12.763 -4.6428,-25.5667 -14.3144,-35.2383 -9.5465,-9.5465 -22.144,-14.3203 -34.7422,-14.3203 z m 0,22.5352 c 0.3107,0 0.6172,0.079 0.9277,0.09 a 26.45648,26.45648 0 0 1 2.9785,0.2891 c 0.7134,0.1078 1.4144,0.2392 2.1192,0.4062 a 26.45648,26.45648 0 0 1 3.1797,0.9531 c 0.407,0.1531 0.81,0.3006 1.2109,0.4747 a 26.45648,26.45648 0 0 1 3.8574,2.0468 c 0.1864,0.1209 0.3667,0.249 0.5508,0.375 a 26.45648,26.45648 0 0 1 3.8672,3.1719 26.45648,26.45648 0 0 1 0.016,0.014 c 4e-4,3e-4 0,-4e-4 0,0 0,0 0,0.01 0.01,0.01 a 26.45648,26.45648 0 0 1 3.8164,4.834 c 0.069,0.111 0.1321,0.2223 0.1992,0.334 a 26.45648,26.45648 0 0 1 2.2988,4.9707 c 0.047,0.1346 0.1373,0.2555 0.1817,0.3906 -0.019,-0.01 -0.038,-0.011 -0.057,-0.017 a 26.45648,26.45648 0 0 1 -6.4492,26.8925 26.45648,26.45648 0 0 1 -2.4394,2.1368 c 0.01,0 0.013,0 0.019,0.01 -0.048,0.038 -0.1024,0.06 -0.1504,0.098 a 26.45648,26.45648 0 0 1 -3.6855,2.3926 c -0.2659,0.1437 -0.5373,0.2625 -0.8067,0.3964 a 26.45648,26.45648 0 0 1 -3.205,1.3282 c -0.4744,0.1619 -0.9471,0.3055 -1.4278,0.4394 a 26.45648,26.45648 0 0 1 -2.7305,0.5879 c -0.8024,0.1336 -1.6009,0.221 -2.4101,0.2793 a 26.45648,26.45648 0 0 1 -2.0371,0.066 c -0.817,0 -1.6256,-0.038 -2.4395,-0.1191 a 26.45648,26.45648 0 0 1 -2.5605,-0.3789 c -0.5798,-0.1167 -1.1519,-0.2421 -1.7246,-0.3985 a 26.45648,26.45648 0 0 1 -2.9649,-1.0078 c -0.4636,-0.1885 -0.92,-0.3814 -1.375,-0.5976 a 26.45648,26.45648 0 0 1 -3.3027,-1.8457 c -0.1997,-0.1329 -0.3968,-0.2655 -0.5938,-0.4043 a 26.45648,26.45648 0 0 1 -3.58,-2.9786 26.45648,26.45648 0 0 1 -3.1934,-3.8945 c -0.1216,-0.1778 -0.2465,-0.3513 -0.3633,-0.5312 a 26.45648,26.45648 0 0 1 -2.0547,-3.8731 c -0.1719,-0.3963 -0.3173,-0.795 -0.4687,-1.1973 a 26.45648,26.45648 0 0 1 -0.957,-3.1933 c -0.166,-0.7009 -0.297,-1.398 -0.4043,-2.1074 a 26.45648,26.45648 0 0 1 -0.2891,-2.9844 c -0.022,-0.6205 -0.022,-1.233 0,-1.8535 a 26.45648,26.45648 0 0 1 0.2891,-2.9785 c 0.1077,-0.7128 0.2393,-1.413 0.4062,-2.1172 a 26.45648,26.45648 0 0 1 0.9551,-3.1875 c 0.1515,-0.4024 0.2968,-0.8009 0.4687,-1.1973 a 26.45648,26.45648 0 0 1 2.0547,-3.873 c 0.1168,-0.18 0.2417,-0.3535 0.3633,-0.5313 a 26.45648,26.45648 0 0 1 3.1934,-3.8945 26.45648,26.45648 0 0 1 3.8945,-3.1934 c 0.1783,-0.1219 0.3527,-0.2462 0.5332,-0.3633 a 26.45648,26.45648 0 0 1 3.8652,-2.0507 c 0.4005,-0.1739 0.8025,-0.3218 1.209,-0.4747 a 26.45648,26.45648 0 0 1 3.1797,-0.9531 c 0.7047,-0.167 1.4059,-0.2984 2.1191,-0.4062 a 26.45648,26.45648 0 0 1 2.9786,-0.2891 c 0.3105,-0.011 0.617,-0.09 0.9277,-0.09 z m 39.1133,56.2597 c 117.3279,51.2619 191.3703,172.3779 179.9179,303.2793 -5.0974,58.2659 -26.577,111.6623 -59.7734,155.6719 -16.0655,-3.7925 -33.7123,0.5366 -46.166,12.9902 -12.4693,12.4693 -16.7942,30.1449 -12.9766,46.2266 -44.0588,33.3135 -97.5552,54.8686 -155.9394,59.9766 -130.8979,11.452 -252.0127,-62.5919 -303.2774,-179.9161 1.7853,-1.3475 3.4994,-2.8293 5.1231,-4.4531 8.7286,-8.7286 13.4631,-20.0095 14.2109,-31.5078 L -7.2748,28.2642 c 14.0122,28.1372 39.5071,50.411 72.0645,59.1348 60.2281,16.1377 122.7311,-19.9478 138.8691,-80.1758 14.15,-52.8086 -11.8506,-107.3621 -59.0703,-130.8809 l 34.9473,-156.168 c 11.5017,-0.7457 22.7845,-5.4818 31.5156,-14.2129 1.5899,-1.5896 3.0459,-3.2665 4.3711,-5.0117 z M 94.6861,-90.2065 c 5.6267,0.07 11.3474,0.8408 17.0586,2.3711 36.552,9.794 57.8996,46.7684 48.1055,83.3203 -9.794,36.5519 -46.7683,57.8995 -83.3203,48.1055 C 39.9779,33.7963 18.6304,-3.1781 28.4244,-39.73 36.6882,-70.5706 64.3028,-90.5874 94.6861,-90.2065 Z M -212.4135,33.4536 c 0.3107,0 0.6173,0.079 0.9278,0.09 a 26.45648,26.45648 0 0 1 2.9433,0.2851 c 0.7285,0.1091 1.4446,0.2413 2.1641,0.4121 a 26.45648,26.45648 0 0 1 3.1543,0.9473 c 0.4143,0.1556 0.8244,0.3052 1.2324,0.4824 a 26.45648,26.45648 0 0 1 3.8477,2.041 c 0.1863,0.1209 0.3667,0.2492 0.5508,0.375 a 26.45648,26.45648 0 0 1 3.8867,3.1876 26.45648,26.45648 0 0 1 3.1015,3.7304 c 0.073,0.1048 0.1399,0.2109 0.211,0.3164 a 26.45648,26.45648 0 0 1 2.0254,3.6289 c 0.1496,0.3221 0.286,0.6444 0.4218,0.9707 a 26.45648,26.45648 0 0 1 1.0918,3.2344 c 0.1442,0.5332 0.2652,1.0643 0.375,1.6035 a 26.45648,26.45648 0 0 1 0.418,2.8692 c 0.057,0.6308 0.089,1.2559 0.1,1.8886 a 26.45648,26.45648 0 0 1 -0.1016,2.836 c -0.053,0.5814 -0.1245,1.1547 -0.2167,1.7324 a 26.45648,26.45648 0 0 1 -0.6778,3.0938 c -0.1185,0.4131 -0.2415,0.8201 -0.3808,1.2285 a 26.45648,26.45648 0 0 1 -1.4903,3.5508 c -0.098,0.1895 -0.1944,0.3767 -0.2968,0.5644 a 26.45648,26.45648 0 0 1 -2.5118,3.8262 c -0.01,0.011 -0.015,0.024 -0.023,0.035 -5e-4,0 0,0 0,0 a 26.45648,26.45648 0 0 1 -2.0429,2.2989 26.45648,26.45648 0 0 1 -27.0508,6.3847 c 0.01,0.023 0.014,0.047 0.021,0.07 -0.1365,-0.046 -0.2587,-0.1375 -0.3946,-0.1855 a 26.45648,26.45648 0 0 1 -4.7597,-2.2305 c -0.1579,-0.094 -0.3182,-0.1753 -0.4746,-0.2734 a 26.45648,26.45648 0 0 1 -4.7559,-3.7656 26.45648,26.45648 0 0 1 -3.1855,-3.8848 c -0.126,-0.1841 -0.2542,-0.3644 -0.375,-0.5508 a 26.45648,26.45648 0 0 1 -2.0469,-3.8574 c -0.174,-0.4009 -0.3216,-0.8039 -0.4746,-1.2109 a 26.45648,26.45648 0 0 1 -0.9551,-3.1817 c -0.1665,-0.7026 -0.2967,-1.402 -0.4043,-2.1133 a 26.45648,26.45648 0 0 1 -0.2891,-2.9824 c -0.022,-0.6205 -0.022,-1.233 0,-1.8535 a 26.45648,26.45648 0 0 1 0.2891,-2.9805 c 0.1076,-0.712 0.2376,-1.4118 0.4043,-2.1152 a 26.45648,26.45648 0 0 1 0.9551,-3.1816 c 0.153,-0.4071 0.3006,-0.8101 0.4746,-1.211 a 26.45648,26.45648 0 0 1 2.0469,-3.8574 c 0.1208,-0.1864 0.249,-0.3667 0.375,-0.5508 a 26.45648,26.45648 0 0 1 3.1855,-3.8847 26.45648,26.45648 0 0 1 3.8867,-3.1876 c 0.1841,-0.1258 0.3644,-0.2541 0.5508,-0.375 a 26.45648,26.45648 0 0 1 3.8418,-2.0371 c 0.412,-0.1791 0.8257,-0.3313 1.2441,-0.4882 a 26.45648,26.45648 0 0 1 3.1465,-0.9454 c 0.72,-0.171 1.4371,-0.3029 2.166,-0.4121 a 26.45648,26.45648 0 0 1 2.9434,-0.2851 c 0.3105,-0.011 0.6171,-0.09 0.9277,-0.09 z m 535.5684,147.7422 a 26.45648,26.45648 0 0 1 19.6973,7.7305 26.45648,26.45648 0 0 1 7.1406,24.334 c 0.025,-0.028 0.053,-0.053 0.078,-0.08 -0.081,0.3738 -0.2249,0.7346 -0.3222,1.1055 a 26.45648,26.45648 0 0 1 -0.4317,1.4785 c -0.1848,0.5656 -0.3812,1.1245 -0.6055,1.6797 a 26.45648,26.45648 0 0 1 -1.0058,2.2207 c -0.1487,0.2881 -0.2989,0.5735 -0.459,0.8574 a 26.45648,26.45648 0 0 1 -1.7344,2.7109 26.45648,26.45648 0 0 1 0,0.01 c -0.065,0.088 -0.1312,0.1743 -0.1973,0.2617 a 26.45648,26.45648 0 0 1 -2.4589,2.8418 26.45648,26.45648 0 0 1 -2.7403,2.3731 c -0.1756,0.134 -0.3532,0.2615 -0.5312,0.3906 a 26.45648,26.45648 0 0 1 -2.2891,1.4648 c -0.4867,0.2819 -0.9792,0.539 -1.4785,0.7871 a 26.45648,26.45648 0 0 1 -1.6094,0.7285 c -0.873,0.3631 -1.7579,0.6648 -2.6562,0.9297 a 26.45648,26.45648 0 0 1 -0.6914,0.2032 c -0.3858,0.1023 -0.7615,0.2514 -1.1504,0.3359 0.034,-0.031 0.066,-0.065 0.1,-0.096 a 26.45648,26.45648 0 0 1 -24.3692,-7.1172 26.45648,26.45648 0 0 1 -6.8085,-25.6816 c -0.026,0.024 -0.052,0.05 -0.078,0.074 0.048,-0.1747 0.1596,-0.332 0.211,-0.5059 a 26.45648,26.45648 0 0 1 2.2656,-5.4297 c 0.1046,-0.1864 0.2089,-0.3682 0.3184,-0.5527 a 26.45648,26.45648 0 0 1 4.0917,-5.3203 26.45648,26.45648 0 0 1 5.293,-4.0742 c 0.1898,-0.1129 0.3765,-0.2206 0.5684,-0.3281 a 26.45648,26.45648 0 0 1 5.3965,-2.2598 c 0.1745,-0.052 0.3324,-0.1647 0.5078,-0.2129 -0.025,0.027 -0.051,0.053 -0.076,0.08 a 26.45648,26.45648 0 0 1 6.0293,-0.9356 z" inkscape:export-filename="/Users/traviszehren/Google Drive/My Drive/Mechanist Studio/MechanistLight.png" inkscape:export-xdpi="109.18345" inkscape:export-ydpi="109.18345"></path>
    </g>
  </g>
</svg><style>@media (prefers-color-scheme: light) { :root { filter: none; } }
@media (prefers-color-scheme: dark) { :root { filter: invert(100%); } }
</style></svg>